<?xml version="1.0" encoding="UTF-8"?> <svg xmlns="http://www.w3.org/2000/svg" xmlns:xlink="http://www.w3.org/1999/xlink" id="Layer_1" data-name="Layer 1" viewBox="0 0 1000.19 121.44"><defs><style>.cls-1{fill:url(#New_Gradient_Swatch_copy_3);}</style><linearGradient id="New_Gradient_Swatch_copy_3" x1="513.95" y1="12.56" x2="513.95" y2="134" gradientUnits="userSpaceOnUse"><stop offset="0" stop-color="#2e2f78"></stop><stop offset="0.11" stop-color="#2e2f78"></stop><stop offset="1" stop-color="#692c82"></stop></linearGradient></defs><path class="cls-1" d="M1013.24,122.88l-1-1.61-1-1.6-1-1.6-1-1.61-1-1.6-1-1.6-1-1.61-1-1.6-1-1.61-1-1.6-1-1.6-1-1.61-1-1.6-1-1.61-1-1.6-1-1.6-1-1.61-1-1.6-1-1.61-1-1.6-1-1.6-1-1.61-1-1.6-1-1.6-1-1.61-1-1.6-1-1.61-1-1.6-1-1.6-1-1.61-1-1.6-1-1.61L981,70l-1-1.6-1-1.61-1-1.6-1-1.6-1-1.61-1-1.6-1-1.61-1-1.6-1-1.6-1-1.61-1-1.6-1-1.61-1-1.6-1-1.6-1-1.61-1-1.6-1-1.6-1-1.61-1-1.6-1-1.61-1-1.6-1-1.6-1-1.61-1-1.6-1-1.61-5.47-9-5.5,9-1,1.61-1,1.6-1,1.61-1,1.6-1,1.6-1,1.61-1,1.6-1,1.61-1,1.6-1,1.6-1,1.61-1,1.6-1,1.6-1,1.61-1,1.6-1,1.61-1,1.6-1,1.6-1,1.61-1,1.6-1,1.61-1,1.6-1,1.6-1,1.61L921,70l-1,1.6-1,1.61-1,1.6-1,1.61-1,1.6-1,1.6-1,1.61-1,1.6-1,1.61-1,1.6-1,1.6-1,1.61-1,1.6-1,1.6-1,1.61-1,1.6-1,1.61-1,1.6-1,1.6-1,1.61-1,1.6-1,1.61-1,1.6-1,1.6-1,1.61-1,1.6-1,1.61-1,1.6-1,1.6-4.85,7.66,20.55,0,.88-1.28,1-1.61,1-1.6,1-1.6,1-1.61,1-1.6,1-1.6,1-1.61,1-1.6,1-1.61,1.19-1.79,63.52,0,1.15,1.53,1.07,1.83,1,1.6,1,1.61,1,1.6,1,1.6,1,1.61,1,1.6,1,1.6,1,1.61.78,1.24,20.52,0Zm-83-33.75,1.52-2.4,1-1.57,1-1.57,1-1.58,1-1.57,1-1.57,1-1.57,1-1.57,1-1.58,1-1.57,1-1.57,1-1.57,1-1.58,1-1.57,1-1.57,1-1.57,1-1.58,1-1.57,1-1.57,1-1.57.65-1,.65,1,1,1.57,1,1.57,1,1.57,1,1.58,1,1.57,1,1.57,1,1.57,1,1.58,1,1.57,1,1.57,1,1.57,1,1.58,1,1.57,1,1.57,1,1.57,1,1.57,1,1.58,1,1.57,1,1.57,1.43,2.46Zm-67-39.89c0-.53-.08-1.05-.14-1.58s-.14-1-.23-1.57-.19-1.05-.31-1.57-.25-1.05-.4-1.57-.32-1.06-.5-1.57-.38-1.06-.59-1.58-.45-1-.69-1.57-.53-1.06-.82-1.57-.61-1.06-.94-1.57-.7-1.06-1.08-1.58-.8-1.06-1.22-1.57a30.15,30.15,0,0,0-23.14-10.8H758.24V124.2h17.47l-.05-1.06V82.26l0-.48,40.68,0L842,124.2l21.55,0L837.81,81.61s4.64-1.81,6.37-2.5a30.26,30.26,0,0,0,3.36-1.57c.88-.48,1.74-1,2.56-1.57s1.42-1,2.1-1.57,1.19-1,1.76-1.58,1-1,1.53-1.57.89-1,1.32-1.57.79-1,1.16-1.57.69-1,1-1.58.6-1,.87-1.57.52-1,.76-1.57.45-1,.66-1.57.38-1,.55-1.58.32-1,.46-1.57.25-1,.36-1.57.2-1,.28-1.57.13-1.05.18-1.58.09-1,.11-1.57,0-.85,0-1.28v-.29C863.23,50.28,863.21,49.76,863.18,49.24Zm-17.42,3.14a15.57,15.57,0,0,1-.27,1.57,13.76,13.76,0,0,1-.48,1.58,12.29,12.29,0,0,1-.7,1.57,13.54,13.54,0,0,1-1,1.57,12.92,12.92,0,0,1-1.38,1.57,13.54,13.54,0,0,1-2,1.65,23,23,0,0,1-3.45,1.9,7.91,7.91,0,0,1-3.31.71H775.6l.07-1.11v-25h57.45a12.72,12.72,0,0,1,8.15,3A11.65,11.65,0,0,1,842.84,43,12.42,12.42,0,0,1,844,44.52a13.06,13.06,0,0,1,.83,1.57,14.6,14.6,0,0,1,.55,1.57,13.84,13.84,0,0,1,.33,1.58c.07.51.12,1,.14,1.57,0,.1,0,.19,0,.29C845.82,51.54,845.8,52,845.76,52.38Zm-514.52,41c0,.27,0,.54,0,.82s0,.5,0,.75c0,.53,0,1-.07,1.57s-.1,1-.16,1.57-.15,1.06-.24,1.57-.21,1.06-.33,1.58-.27,1-.42,1.57-.33,1-.51,1.57-.39,1.06-.61,1.57-.47,1.06-.73,1.58-.55,1-.84,1.57-.63,1.06-1,1.57-.72,1.06-1.11,1.57-.85,1.07-1.29,1.58-1,1.06-1.48,1.57-1.13,1.07-1.73,1.57-1.33,1.08-2,1.57-1.63,1.09-2.48,1.58a32.54,32.54,0,0,1-3.19,1.57,31.34,31.34,0,0,1-4.74,1.57,32.5,32.5,0,0,1-7.65.91l-74.13-.26,10.38-17.18,64.23.18a12.67,12.67,0,0,0,7.56-2.52,13,13,0,0,0,1.75-1.57,12.66,12.66,0,0,0,1.25-1.57,12.83,12.83,0,0,0,.89-1.58,12,12,0,0,0,.63-1.57,11.64,11.64,0,0,0,.4-1.57,13.46,13.46,0,0,0,.18-1.57c0-.25,0-.5,0-.75s0-.55,0-.82a13.64,13.64,0,0,0-.19-1.58,13.92,13.92,0,0,0-.41-1.57,12.65,12.65,0,0,0-.65-1.57,13.29,13.29,0,0,0-.89-1.57,13,13,0,0,0-1.28-1.58,12.73,12.73,0,0,0-4.65-3.14,12.36,12.36,0,0,0-4.58-.55l-44.62.11a47.55,47.55,0,0,1-6.69-.84,29.76,29.76,0,0,1-5-1.72,27.57,27.57,0,0,1-3.14-1.65,25.91,25.91,0,0,1-2.39-1.57c-.71-.5-1.37-1.09-2-1.64s-1.18-1-1.74-1.58-1-1-1.5-1.57-.89-1-1.31-1.57-.78-1-1.15-1.57-.67-1-1-1.58-.59-1-.87-1.57-.51-1-.75-1.57-.44-1-.64-1.57-.38-1-.55-1.58-.31-1-.44-1.57-.25-1-.35-1.57-.19-1-.27-1.57-.13-1-.18-1.57-.08-1-.1-1.58c0-.37,0-.74,0-1.11,0-.16,0-.31,0-.46,0-.53,0-1,.06-1.57s.09-1,.15-1.57.14-1.06.23-1.58.2-1,.32-1.57.25-1,.4-1.57.32-1.06.5-1.57.38-1.06.6-1.58.45-1,.69-1.57.54-1,.83-1.57.61-1.06.94-1.57.7-1.06,1.07-1.58.81-1.06,1.23-1.57a30.1,30.1,0,0,1,23.09-10.8l74.8-.13-11,17.6-63.84,0A12.72,12.72,0,0,0,247,43a11.78,11.78,0,0,0-1.16,1.57,11.9,11.9,0,0,0-.85,1.57,12.48,12.48,0,0,0-.59,1.58,13.26,13.26,0,0,0-.35,1.57,13.46,13.46,0,0,0-.15,1.57c0,.15,0,.3,0,.46,0,.37,0,.74.05,1.11a13.67,13.67,0,0,0,.24,1.58,14.13,14.13,0,0,0,.46,1.57,12.19,12.19,0,0,0,.68,1.57,13.24,13.24,0,0,0,1,1.57,11.75,11.75,0,0,0,1.33,1.57,12.06,12.06,0,0,0,1.91,1.58,18.17,18.17,0,0,0,3.07,1.77,11,11,0,0,0,4,1l44.47.05a60.81,60.81,0,0,1,7.65.52,21,21,0,0,1,4.6,1.34,30.63,30.63,0,0,1,3.07,1.58c.82.48,1.63,1,2.4,1.57s1.35,1,2,1.57,1.16,1,1.71,1.57,1,1,1.45,1.58.87,1,1.28,1.57.75,1,1.1,1.57.66,1,1,1.57.58,1,.85,1.58.5,1,.73,1.57.43,1,.62,1.57.36,1,.52,1.57.3,1.05.43,1.58.23,1,.33,1.57.18,1,.25,1.57.13,1,.17,1.57S331.23,92.83,331.24,93.36ZM704.06,38.73H627.81V21.16h86.56ZM526.43,106.88l70,0L585.59,124l-76.59,0V21.14h17.42v85.74ZM470.92,51.11c0,.23,0,.46,0,.7V59c0,1.94,0,3.88-.05,5.82H453.52V60.64h0V51.81c0-.24,0-.47,0-.7a13.11,13.11,0,0,0-.54-3.15,12.39,12.39,0,0,0-.6-1.57,13.2,13.2,0,0,0-.85-1.57,13.75,13.75,0,0,0-1.15-1.57,13.18,13.18,0,0,0-1.59-1.58,13.61,13.61,0,0,0-2.38-1.57,13.06,13.06,0,0,0-6-1.48H396.71a13.39,13.39,0,0,0-6.15,1.48,13.53,13.53,0,0,0-2.37,1.57,13.1,13.1,0,0,0-1.58,1.58,13.59,13.59,0,0,0-1.13,1.57,14.6,14.6,0,0,0-.82,1.57,12.29,12.29,0,0,0-.58,1.57,13.44,13.44,0,0,0-.36,1.58,13.24,13.24,0,0,0-.16,1.57c0,.23,0,.46,0,.7v3.5h0v9.48H366.15c0-1.94,0-3.88,0-5.82V51.81c0-.24,0-.47,0-.7,0-.53,0-1,.07-1.57s.1-1.06.16-1.58.15-1.05.24-1.57.2-1,.33-1.57.26-1,.41-1.57.32-1.06.5-1.58.39-1.05.6-1.57.45-1.05.7-1.57.54-1.06.83-1.57.61-1.06.94-1.57.7-1.07,1.07-1.58.8-1.06,1.22-1.57a30.57,30.57,0,0,1,23.52-11h43.62a30.57,30.57,0,0,1,23.52,11c.42.51.83,1,1.22,1.57s.73,1,1.07,1.58.64,1,.94,1.57.57,1,.82,1.57.49,1,.71,1.57.41,1,.6,1.57.35,1,.5,1.58.29,1,.41,1.57.23,1,.33,1.57.17,1,.24,1.57.12,1,.16,1.58S470.91,50.58,470.92,51.11Zm0,35.13h.05v7.32c0,.53,0,1-.05,1.58s-.07,1-.12,1.57-.13,1.05-.21,1.57-.18,1-.29,1.57-.24,1.06-.38,1.58-.3,1-.47,1.57-.36,1-.56,1.57-.43,1.06-.66,1.57-.5,1.06-.77,1.57-.58,1.06-.89,1.58-.66,1.06-1,1.57-.76,1.06-1.16,1.57-.87,1.07-1.32,1.57-1,1.07-1.54,1.58-1.15,1.07-1.76,1.57-1.37,1.08-2.09,1.57-1.67,1.09-2.54,1.57a29.42,29.42,0,0,1-3.3,1.58,31.32,31.32,0,0,1-5.12,1.57,31,31,0,0,1-6.36.67H396.71a30.67,30.67,0,0,1-11.51-2.24,30.43,30.43,0,0,1-3.31-1.58c-.87-.48-1.72-1-2.54-1.57s-1.42-1-2.1-1.57-1.19-1-1.76-1.57-1-1-1.53-1.58-.9-1-1.33-1.57-.79-1-1.16-1.57-.7-1-1-1.57-.6-1-.88-1.58-.53-1-.77-1.57-.45-1-.66-1.57-.39-1-.56-1.57-.33-1-.47-1.57-.26-1.05-.37-1.58-.21-1-.29-1.57-.14-1-.2-1.57-.09-1-.11-1.57,0-1,0-1.48V86.24c0-1.39,0-2.77,0-4.16h17.38v4.16h0v7.42a14.52,14.52,0,0,0,.09,1.48,14,14,0,0,0,.28,1.57,13.59,13.59,0,0,0,.48,1.57,13.87,13.87,0,0,0,.7,1.57,16.18,16.18,0,0,0,1,1.58,14.25,14.25,0,0,0,1.34,1.57,13.34,13.34,0,0,0,9.3,3.85h43.62a13.11,13.11,0,0,0,4.22-.71,13,13,0,0,0,5.08-3.14,14.25,14.25,0,0,0,1.34-1.57,16.18,16.18,0,0,0,1-1.58,15.91,15.91,0,0,0,.7-1.57,13.59,13.59,0,0,0,.48-1.57,14,14,0,0,0,.28-1.57,14.52,14.52,0,0,0,.09-1.48V82h17.37ZM645.33,107l74.24,0L709,124.16H627.92v-60L627.83,56l81,0,0,17.52-63.52,0,0,8.1V107ZM80.05,29.79H66L83.1,12.58l22.05,0h.11C101.69,22.84,91.5,29.79,80.05,29.79Zm25,87h14.09L102,134l-22,0h-.11C83.4,123.72,93.59,116.77,105,116.77Zm-20.39-26h60.53L127.8,107.92l-61.06,0h-.18C66.56,98.45,74.66,90.73,84.65,90.73Zm15.78-34.88H39.9L57.11,38.66l61.32,0h.09C118.52,48.14,110.42,55.85,100.43,55.85ZM31.07,64.72l139.75.12L154,81.89h-1.59l-138.52,0Z" transform="translate(-13.86 -12.56)"></path></svg> 